<svg width="110" height="120" viewBox="0 0 110 120" fill="none" xmlns="http://www.w3.org/2000/svg">
<mask id="path-1-outside-1_5_4" maskUnits="userSpaceOnUse" x="0" y="0" width="106" height="120" fill="black">
<rect fill="white" width="106" height="120"/>
<path d="M95.3553 95.3553C88.3627 102.348 79.4535 107.11 69.7545 109.039C60.0554 110.969 50.0021 109.978 40.8658 106.194C31.7295 102.41 23.9205 96.0009 18.4265 87.7784C12.9324 79.556 9.99998 69.889 10 59.9999C10 50.1108 12.9325 40.4438 18.4266 32.2214C23.9207 23.9989 31.7297 17.5903 40.866 13.806C50.0023 10.0216 60.0557 9.03147 69.7547 10.9608C79.4538 12.8901 88.3629 17.6522 95.3555 24.6448L91.8506 28.1497C85.5512 21.8503 77.5252 17.5603 68.7877 15.8222C60.0501 14.0842 50.9934 14.9761 42.7628 18.3853C34.5322 21.7945 27.4974 27.5678 22.5479 34.9752C17.5985 42.3825 14.9567 51.0912 14.9567 59.9999C14.9567 68.9086 17.5984 77.6173 22.5478 85.0247C27.4972 92.432 34.532 98.2053 42.7626 101.615C50.9932 105.024 60.0499 105.916 68.7875 104.178C77.525 102.44 85.551 98.1499 91.8504 91.8504L95.3553 95.3553Z"/>
</mask>
<path d="M95.3553 95.3553C88.3627 102.348 79.4535 107.11 69.7545 109.039C60.0554 110.969 50.0021 109.978 40.8658 106.194C31.7295 102.41 23.9205 96.0009 18.4265 87.7784C12.9324 79.556 9.99998 69.889 10 59.9999C10 50.1108 12.9325 40.4438 18.4266 32.2214C23.9207 23.9989 31.7297 17.5903 40.866 13.806C50.0023 10.0216 60.0557 9.03147 69.7547 10.9608C79.4538 12.8901 88.3629 17.6522 95.3555 24.6448L91.8506 28.1497C85.5512 21.8503 77.5252 17.5603 68.7877 15.8222C60.0501 14.0842 50.9934 14.9761 42.7628 18.3853C34.5322 21.7945 27.4974 27.5678 22.5479 34.9752C17.5985 42.3825 14.9567 51.0912 14.9567 59.9999C14.9567 68.9086 17.5984 77.6173 22.5478 85.0247C27.4972 92.432 34.532 98.2053 42.7626 101.615C50.9932 105.024 60.0499 105.916 68.7875 104.178C77.525 102.44 85.551 98.1499 91.8504 91.8504L95.3553 95.3553Z" stroke="#EF2A55" stroke-width="20" stroke-miterlimit="1.30541" stroke-linejoin="round" mask="url(#path-1-outside-1_5_4)"/>
<mask id="path-2-outside-2_5_4" maskUnits="userSpaceOnUse" x="25" y="15" width="80" height="90" fill="black">
<rect fill="white" x="25" y="15" width="80" height="90"/>
<path d="M35.2513 84.7487C40.1461 89.6436 46.3825 92.977 53.1718 94.3275C59.9612 95.678 66.9985 94.9849 73.3939 92.3358C79.7893 89.6867 85.2556 85.2007 89.1014 79.445C92.9473 73.6892 95 66.9223 95 60C95 53.0777 92.9473 46.3108 89.1014 40.555C85.2556 34.7993 79.7893 30.3133 73.3939 27.6642C66.9985 25.0151 59.9612 24.322 53.1718 25.6725C46.3825 27.023 40.1461 30.3564 35.2513 35.2513L38.1159 38.1159C42.4442 33.7876 47.9587 30.84 53.9622 29.6459C59.9657 28.4517 66.1884 29.0646 71.8436 31.407C77.4987 33.7495 82.3323 37.7163 85.733 42.8058C89.1337 47.8953 90.9488 53.8789 90.9488 60C90.9488 66.1211 89.1337 72.1047 85.733 77.1942C82.3323 82.2837 77.4987 86.2505 71.8436 88.593C66.1884 90.9354 59.9657 91.5483 53.9622 90.3541C47.9587 89.16 42.4442 86.2124 38.1159 81.8841L35.2513 84.7487Z"/>
</mask>
<path d="M35.2513 84.7487C40.1461 89.6436 46.3825 92.977 53.1718 94.3275C59.9612 95.678 66.9985 94.9849 73.3939 92.3358C79.7893 89.6867 85.2556 85.2007 89.1014 79.445C92.9473 73.6892 95 66.9223 95 60C95 53.0777 92.9473 46.3108 89.1014 40.555C85.2556 34.7993 79.7893 30.3133 73.3939 27.6642C66.9985 25.0151 59.9612 24.322 53.1718 25.6725C46.3825 27.023 40.1461 30.3564 35.2513 35.2513L38.1159 38.1159C42.4442 33.7876 47.9587 30.84 53.9622 29.6459C59.9657 28.4517 66.1884 29.0646 71.8436 31.407C77.4987 33.7495 82.3323 37.7163 85.733 42.8058C89.1337 47.8953 90.9488 53.8789 90.9488 60C90.9488 66.1211 89.1337 72.1047 85.733 77.1942C82.3323 82.2837 77.4987 86.2505 71.8436 88.593C66.1884 90.9354 59.9657 91.5483 53.9622 90.3541C47.9587 89.16 42.4442 86.2124 38.1159 81.8841L35.2513 84.7487Z" stroke="#17A1FB" stroke-width="20" stroke-miterlimit="1.30541" stroke-linejoin="round" mask="url(#path-2-outside-2_5_4)"/>
<mask id="path-3-outside-3_5_4" maskUnits="userSpaceOnUse" x="29" y="29" width="56" height="62" fill="black">
<rect fill="white" x="29" y="29" width="56" height="62"/>
<path d="M74.8492 74.8492C71.9123 77.7861 68.1705 79.7862 64.0969 80.5965C60.0233 81.4068 55.8009 80.9909 51.9636 79.4015C48.1264 77.812 44.8466 75.1204 42.5391 71.667C40.2316 68.2135 39 64.1534 39 60C39 55.8466 40.2316 51.7864 42.5392 48.333C44.8467 44.8796 48.1264 42.1879 51.9637 40.5985C55.8009 39.0091 60.0233 38.5932 64.0969 39.4035C68.1705 40.2138 71.9124 42.2139 74.8493 45.1508L71.4087 48.5914C69.1523 46.3349 66.2774 44.7983 63.1477 44.1757C60.0179 43.5532 56.7739 43.8727 53.8257 45.0938C50.8775 46.315 48.3577 48.383 46.5848 51.0362C44.812 53.6895 43.8657 56.8089 43.8657 60C43.8657 63.191 44.812 66.3104 46.5848 68.9637C48.3577 71.617 50.8775 73.685 53.8257 74.9061C56.7738 76.1273 60.0179 76.4468 63.1476 75.8243C66.2774 75.2017 69.1522 73.6651 71.4087 71.4087L74.8492 74.8492Z"/>
</mask>
<path d="M74.8492 74.8492C71.9123 77.7861 68.1705 79.7862 64.0969 80.5965C60.0233 81.4068 55.8009 80.9909 51.9636 79.4015C48.1264 77.812 44.8466 75.1204 42.5391 71.667C40.2316 68.2135 39 64.1534 39 60C39 55.8466 40.2316 51.7864 42.5392 48.333C44.8467 44.8796 48.1264 42.1879 51.9637 40.5985C55.8009 39.0091 60.0233 38.5932 64.0969 39.4035C68.1705 40.2138 71.9124 42.2139 74.8493 45.1508L71.4087 48.5914C69.1523 46.3349 66.2774 44.7983 63.1477 44.1757C60.0179 43.5532 56.7739 43.8727 53.8257 45.0938C50.8775 46.315 48.3577 48.383 46.5848 51.0362C44.812 53.6895 43.8657 56.8089 43.8657 60C43.8657 63.191 44.812 66.3104 46.5848 68.9637C48.3577 71.617 50.8775 73.685 53.8257 74.9061C56.7738 76.1273 60.0179 76.4468 63.1476 75.8243C66.2774 75.2017 69.1522 73.6651 71.4087 71.4087L74.8492 74.8492Z" stroke="#FDD433" stroke-width="20" stroke-linejoin="round" mask="url(#path-3-outside-3_5_4)"/>
<circle cx="60" cy="60" r="4" fill="#4BF2C9" stroke="#4BF2C9" stroke-width="4" stroke-miterlimit="4.62023" stroke-linecap="round" stroke-linejoin="round"/>
</svg>
