<svg xmlns="http://www.w3.org/2000/svg" width="1440" height="240" viewBox="0 0 1440 240" fill="none">
  <path d="M0 0H1440V240H0V0Z" fill="#E74141"/>
  <mask id="mask0_9_21" style="mask-type:alpha" maskUnits="userSpaceOnUse" x="0" y="0" width="1440" height="240">
    <path d="M0 0H1440V240H0V0Z" fill="white"/>
  </mask>
  <g mask="url(#mask0_9_21)">
    <path d="M1602 -340V-335.197C1599.4 -131.956 1433.83 32.004 1229.99 32.004C1190.95 32.035 1150.83 12.032 1113.68 0C1246.01 -217.376 1247.32 -476.516 1115 -693.892C1152.14 -705.924 1190.95 -712.036 1229.99 -712.002C1433.83 -712.002 1599.4 -548.064 1602 -344.802V-340Z" fill="#FED533"/>
    <path d="M1604 -345.47C1598.85 132.275 1209.95 518 731 518C252.05 518 -137.143 131.999 -142 -346C-137.143 25.019 165.143 324.33 537.328 324.33C579.851 324.361 622.283 320.412 664.07 312.534C738.996 338.663 817.794 351.958 897.145 351.858C1284.37 351.858 1598.85 40.512 1604 -345.469V-345.47Z" fill="#17A1FB"/>
    <path d="M1604 -346V-345.017C1598.85 40.793 1284.35 352 897.093 352C817.738 352.1 738.934 338.811 664 312.693C776.433 291.463 881.643 242.06 969.79 169.108C1003.18 175.534 1037.11 178.758 1071.12 178.738C1362.79 178.718 1599.73 -55.488 1604 -346Z" fill="#E74141"/>
    <path d="M1602.19 -349V-345.556C1602.2 -345.478 1602.2 -345.399 1602.19 -345.321C1597.97 -54.486 1360.66 180 1068.48 180C1034.43 180.021 1000.44 176.793 967 170.36C1025.42 122.144 1075.41 64.5415 1114.92 -0.085968C1152.08 11.9554 1190.91 18.0769 1229.97 18.054C1433.92 18.054 1599.59 -145.838 1602.19 -349.001V-349Z" fill="#4BF2C9"/>
    <path d="M537.012 -353.32C536.848 -248.818 567.434 -146.588 624.943 -59.42C551.747 22.563 450.565 74.088 341.343 85C301.539 34.6065 268.79 -20.9775 244 -80.217C359.587 -121.417 436.794 -231.07 436.794 -354.03C436.794 -476.99 359.587 -586.642 244 -627.842C268.795 -687.061 301.544 -742.625 341.343 -793C450.83 -782.044 552.221 -730.277 625.434 -647.95C567.597 -560.638 536.831 -458.124 537.012 -353.32V-353.32Z" fill="#001E3C"/>
    <path d="M1117.47 -3.33002C1078.08 61.328 1026.62 122.368 968.37 170.624C827.818 143.291 704.852 60.736 626 -59.082C775.66 -226.407 775.872 -479.815 626.49 -647.39C705.606 -767.216 829.567 -849.994 970.335 -877C1028.04 -828.951 1078.37 -774.309 1117.47 -710.124C964.583 -660.241 860.16 -514.726 860.16 -353.522C860.16 -192.317 964.583 -53.212 1117.47 -3.33002Z" fill="#001E3C"/>
    <path d="M664 314.196C622.222 322.079 579.797 326.031 537.281 326C165.086 326.02 -137.144 26.527 -142 -344.714V-348C-138.914 -107.234 57.062 86.985 298.351 86.985C313.226 86.985 327.918 86.257 342.426 84.801C425.687 190.222 537.219 269.784 664 314.196Z" fill="#FED533"/>
    <path d="M342.33 84.812C327.861 86.267 312.852 88 297.964 88C56.887 88 -138.916 -106.014 -142 -346.526V-348C-140.553 -254.598 -94.244 -167.609 -17.586 -114.293C59.072 -60.977 156.698 -47.859 244.697 -79.05C261.223 -39.63 293.767 14.99 342.33 84.812Z" fill="#4BF2C9"/>
    <path d="M663.43 314C536.724 269.55 425.576 190.333 342.33 84.812C451.581 73.902 552.46 21.97 625.674 -60C704.588 59.828 827.705 143.265 968.37 170.623C880.3 243.7 775.793 292.71 663.43 314Z" fill="#17A1FB"/>
  </g>
</svg>